<svg id="Layer_1" data-name="Layer 1" xmlns="http://www.w3.org/2000/svg" viewBox="0 0 74.84 76.57"><defs><style>.cls-1{fill:none;}.cls-2{fill:#00adee;}.cls-3{fill:#fff;}</style></defs><title>energy-star</title><polygon class="cls-1" points="74.83 58.88 74.83 76.57 73.08 76.57 1.76 76.57 0 76.57 0 74.82 0 58.88 0 0 74.83 0 74.83 58.88"/><rect class="cls-2" x="1.76" y="58.88" width="71.33" height="15.94"/><path class="cls-2" d="M64.67,62.39h3.07a2,2,0,0,1,2.14,2.22,1.93,1.93,0,0,1-1.63,2v0c1,.16,1.4.5,1.46,2.29A13.1,13.1,0,0,0,70,71.3H68.83a9.71,9.71,0,0,1-.35-3,1.18,1.18,0,0,0-1.35-1.13H65.8v4.1H64.67Z"/><polygon class="cls-2" points="60.89 62.39 63.79 71.3 62.52 71.3 61.87 69.18 58.43 69.18 57.76 71.3 56.62 71.3 59.44 62.39 60.89 62.39"/><polygon class="cls-2" points="51.72 62.39 57.56 62.39 57.56 63.38 55.21 63.38 55.21 71.3 54.07 71.3 54.07 63.38 51.72 63.38 51.72 62.39"/><path class="cls-2" d="M45.84,68.66H47v.25a1.42,1.42,0,0,0,1.49,1.6c.9,0,1.6-.38,1.6-1.45,0-2-4-1.75-4-4.43a2.36,2.36,0,0,1,2.62-2.43,2.2,2.2,0,0,1,2.47,2.61H49.95c0-1-.3-1.62-1.38-1.62a1.25,1.25,0,0,0-1.37,1.32c0,2,4,1.68,4,4.5,0,1.88-1.29,2.49-2.77,2.49C45.8,71.52,45.8,69.5,45.84,68.66Z"/><polygon class="cls-2" points="38.43 62.39 40.17 66.7 41.97 62.39 43.12 62.39 40.69 67.91 40.69 71.3 39.55 71.3 39.55 67.91 37.16 62.39 38.43 62.39"/><path class="cls-2" d="M31,65.12a2.59,2.59,0,0,1,2.8-2.92c1.93,0,2.84.71,2.77,2.57H35.37c0-1.05-.43-1.62-1.58-1.62-.36,0-1.65.06-1.65,1.92v3c0,2,.57,2.45,1.65,2.45a2.85,2.85,0,0,0,1.59-.4V67.48H33.74v-1h2.79v4.34a5.63,5.63,0,0,1-2.73.66c-1.89,0-2.8-1-2.8-3.44Z"/><path class="cls-2" d="M24.66,62.39h3.08a2,2,0,0,1,2.14,2.22,1.93,1.93,0,0,1-1.63,2v0c1,.16,1.39.5,1.46,2.29A13.14,13.14,0,0,0,30,71.3H28.82a10,10,0,0,1-.35-3,1.17,1.17,0,0,0-1.35-1.13H25.79v4.1H24.66Z"/><polygon class="cls-2" points="18.63 62.39 23.21 62.39 23.21 63.38 19.75 63.38 19.75 66.24 22.97 66.24 22.97 67.23 19.75 67.23 19.75 70.32 23.29 70.32 23.29 71.3 18.63 71.3 18.63 62.39"/><polygon class="cls-2" points="10.93 62.39 12.53 62.39 16.01 70.03 16.03 70.03 16.03 62.39 17.04 62.39 17.04 71.3 15.48 71.3 11.97 63.58 11.95 63.58 11.95 71.3 10.93 71.3 10.93 62.39"/><polygon class="cls-2" points="4.84 62.39 9.43 62.39 9.43 63.38 5.97 63.38 5.97 66.24 9.18 66.24 9.18 67.23 5.97 67.23 5.97 70.32 9.5 70.32 9.5 71.3 4.84 71.3 4.84 62.39"/><polygon class="cls-2" points="60.13 63.44 60.1 63.44 58.71 68.2 61.57 68.2 60.13 63.44"/><path class="cls-2" d="M28.71,64.74a1.21,1.21,0,0,0-1.2-1.36H25.79v2.84H27.5C28.31,66.22,28.71,65.51,28.71,64.74Z"/><path class="cls-2" d="M68.72,64.74a1.21,1.21,0,0,0-1.21-1.36H65.8v2.84h1.71C68.32,66.22,68.72,65.51,68.72,64.74Z"/><polygon class="cls-3" points="0 58.88 1.76 58.88 73.08 58.88 74.83 58.88 74.83 0 0 0 0 58.88"/><polygon class="cls-3" points="1.76 29.2 1.76 26.64 1.76 1.76 73.08 1.76 73.08 26.65 73.08 29.21 73.08 57.12 1.76 57.12 1.76 29.2"/><path class="cls-2" d="M37.42,8.35a44,44,0,0,1,35.66,18.3V1.76H1.76V26.64A43.94,43.94,0,0,1,37.42,8.35Z"/><path class="cls-2" d="M27.73,35.75a.84.84,0,0,0-.4.12,3.69,3.69,0,0,0-1.46,1.77l1.14-1A2.15,2.15,0,0,0,27.73,35.75Z"/><path class="cls-2" d="M16.54,33.25a.72.72,0,0,0,0-.2s-.05-.11-.26-.13c-1.08,0-3.74,1.75-6.34,6.75a16.54,16.54,0,0,0,4.89-3.58C16.11,34.75,16.54,33.74,16.54,33.25Z"/><path class="cls-2" d="M40.25,33.9a1.44,1.44,0,0,0-.43,0,5.87,5.87,0,0,0-3,2.36A10.16,10.16,0,0,0,40.12,34,1,1,0,0,0,40.25,33.9Z"/><path class="cls-2" d="M73.08,29.21a42.85,42.85,0,0,0-71.33,0V57.12H73.08Z"/><path class="cls-2" d="M42.51,48c-.8.61-1.34.53-1.66.35A1.35,1.35,0,0,1,40.26,47c0-.14,0-.28,0-.44.24-1.92,2.13-5.45,6.33-8.77.13-.35.26-.71.38-1.08-1.51,1.87-2.8,2.83-3.72,2.73a1.08,1.08,0,0,1-.91-.71,1.85,1.85,0,0,1-.08-.58A4.56,4.56,0,0,1,43,36.1a21.83,21.83,0,0,0-3.52,2.35c-.75,2.31-2.21,6.1-4.22,7.7-.58.45-1.07.57-1.47.37a1,1,0,0,1-.53-1,.17.17,0,0,1,0-.07c0-1.17,1.26-3.81,3.92-6.45-.83.45-1.63.65-2.16.29a1,1,0,0,1-.44-.89,2.88,2.88,0,0,1,.29-1.14,3,3,0,0,1-1.25-1.53A33.87,33.87,0,0,0,31.17,39l-.62.89c-.23.32-.52.72-1,.52a.57.57,0,0,1-.34-.53,1.07,1.07,0,0,1,0-.18,14.39,14.39,0,0,1,.54-1.36c-2.05,2-4,3-5.07,2.53a1.08,1.08,0,0,1-.57-.63c-1.64,1-2.39.87-2.86.6a1.79,1.79,0,0,1-.73-1.66,8.09,8.09,0,0,1,.18-1.53,39.27,39.27,0,0,0-2.36,3.29l-.58.85c-.22.32-.48.7-.92.51a.57.57,0,0,1-.35-.53v-.12a15.41,15.41,0,0,1,.66-2.45c-4.12,4.2-6.95,4.92-8.24,4.08a1.94,1.94,0,0,1-.8-1.7v-.11a8.49,8.49,0,0,1-5.08-.16.54.54,0,0,1-.29-.73.56.56,0,0,1,.73-.3,7.65,7.65,0,0,0,4.9,0,5.6,5.6,0,0,1,.35-.83c2.73-5.38,5.74-7.69,7.51-7.6a1.32,1.32,0,0,1,1.25.84,1.59,1.59,0,0,1,.12.6c0,1-.72,2.26-2.06,3.62a16.77,16.77,0,0,1-6.26,4.25,2.37,2.37,0,0,0-.06.48.85.85,0,0,0,.3.74c1,.63,4.32-.63,9.26-6.66a.58.58,0,0,1,.77-.11.59.59,0,0,1,.23.46.65.65,0,0,1-.07.29,16.59,16.59,0,0,0-1.1,2.23c1.38-2,2.05-2.59,2.64-2.56a.75.75,0,0,1,.65.41c.14.26.08.54,0,1.16-.28,1.39-.3,2.16-.06,2.31.07,0,.56.22,2.38-1,.73-2.77,2.19-4.13,3.35-4.23a1.1,1.1,0,0,1,1.18.63,1.05,1.05,0,0,1,.08.43,2.6,2.6,0,0,1-1.12,1.85,31.48,31.48,0,0,1-2.51,2c0,.09,0,.15,0,.2a.36.36,0,0,0,0,.12c.43.21,3.17-1,6.3-5.18a.58.58,0,0,1,.75-.15.57.57,0,0,1,.27.48.56.56,0,0,1-.05.24l0,.05c.65-.76,1.05-1,1.44-1a.57.57,0,0,1,.54.38l0,.15a2.37,2.37,0,0,0,.95,1.46c1.76-2.59,3.73-3.65,5-3.5a1.14,1.14,0,0,1,1,.72,1.34,1.34,0,0,1,0,.3,1.46,1.46,0,0,1-.55,1.06c-.42.38-.82.72-1.21,1h0a.56.56,0,0,1,.3.5s0,.08,0,.14a.84.84,0,0,1,0,.11,24.65,24.65,0,0,1,4.62-2.57.56.56,0,0,1,.68.19.57.57,0,0,1,.11.32.59.59,0,0,1-.15.39,5.78,5.78,0,0,0-1.82,3.22.32.32,0,0,0,0,.18c.35,0,1.93-.8,4.73-5.19a.56.56,0,0,1,1,.31.35.35,0,0,1,0,.15c-.3,1.06-.62,2.06-.95,3a35.39,35.39,0,0,1,10.46-4.7.57.57,0,0,1,.7.4s0,.1,0,.15A.58.58,0,0,1,59,33,33.06,33.06,0,0,0,47.57,38.5C45.52,44,43.4,47.29,42.51,48Z"/><path class="cls-2" d="M71.54,31.74l-7.23,6,2.33,9.1a.57.57,0,0,1,0,.21.84.84,0,0,1-.35.69.85.85,0,0,1-1,0l-7.87-5.08-8,5.09a.86.86,0,0,1-1,0,.84.84,0,0,1-.3-.89l2.51-9.07a.84.84,0,0,1,1-.59.85.85,0,0,1,.62.81.9.9,0,0,1,0,.23l-1.92,6.94L57,41A.85.85,0,0,1,58,41l6.52,4.21c-.66-2.56-1.93-7.54-1.93-7.54a.72.72,0,0,1,0-.21.84.84,0,0,1,.3-.64l6-5-7.77-.44a.84.84,0,0,1-.73-.54S58.44,26,57.49,23.54l-2.87,7.32a.82.82,0,0,1-.73.53l-10,.53a.84.84,0,0,1-.88-.8s0,0,0,0a.84.84,0,0,1,.8-.83l9.41-.5,3.44-8.83a.85.85,0,0,1,.79-.53.83.83,0,0,1,.78.53s3.07,7.9,3.43,8.8l9.37.54a.85.85,0,0,1,.75.58.88.88,0,0,1,0,.26A.85.85,0,0,1,71.54,31.74Z"/><path class="cls-2" d="M34.52,45.26c1.31-1,2.39-3.24,3.15-5.21-2.26,2.34-3.26,4.52-3.32,5.33Z"/><path class="cls-2" d="M41.65,45.76A4,4,0,0,0,41.38,47a.75.75,0,0,0,0,.29,1.7,1.7,0,0,0,.39-.24c.59-.45,2.21-2.9,3.93-7A15.54,15.54,0,0,0,41.65,45.76Z"/><path class="cls-2" d="M35.68,38.35a5.24,5.24,0,0,0,2.43-1.4,4.3,4.3,0,0,1-2.16.6A2.69,2.69,0,0,0,35.68,38.35Z"/><path class="cls-3" d="M37.42,10.11a42.89,42.89,0,0,1,35.66,19.1V26.65a43.91,43.91,0,0,0-71.33,0V29.2A42.9,42.9,0,0,1,37.42,10.11Z"/><path class="cls-3" d="M59.41,32.49s0-.1,0-.15a.57.57,0,0,0-.7-.4,35.39,35.39,0,0,0-10.46,4.7c.33-1,.65-2,.95-3a.35.35,0,0,0,0-.15.56.56,0,0,0-1-.31c-2.79,4.39-4.38,5.2-4.73,5.19a.32.32,0,0,1,0-.18A5.78,5.78,0,0,1,45.22,35a.59.59,0,0,0,.15-.39.57.57,0,0,0-.11-.32.56.56,0,0,0-.68-.19A24.65,24.65,0,0,0,40,36.64a.84.84,0,0,0,0-.11c0-.05,0-.09,0-.14a.56.56,0,0,0-.3-.5h0c.39-.31.79-.64,1.21-1a1.46,1.46,0,0,0,.55-1.06,1.34,1.34,0,0,0,0-.3,1.14,1.14,0,0,0-1-.72c-1.25-.14-3.21.91-5,3.5a2.37,2.37,0,0,1-.95-1.46l0-.15a.57.57,0,0,0-.54-.38c-.38,0-.79.27-1.44,1l0-.05a.56.56,0,0,0,.05-.24.57.57,0,0,0-.27-.48.58.58,0,0,0-.75.15c-3.13,4.22-5.87,5.39-6.3,5.18a.36.36,0,0,1,0-.12s0-.11,0-.2a31.48,31.48,0,0,0,2.51-2,2.6,2.6,0,0,0,1.12-1.85,1.05,1.05,0,0,0-.08-.43,1.1,1.1,0,0,0-1.18-.63c-1.16.1-2.62,1.46-3.35,4.23-1.81,1.24-2.31,1.06-2.38,1-.25-.15-.23-.92.06-2.31.12-.62.18-.89,0-1.16a.75.75,0,0,0-.65-.41c-.59,0-1.26.59-2.64,2.56a16.59,16.59,0,0,1,1.1-2.23.65.65,0,0,0,.07-.29.59.59,0,0,0-.23-.46.58.58,0,0,0-.77.11c-4.95,6-8.31,7.29-9.26,6.66a.85.85,0,0,1-.3-.74,2.37,2.37,0,0,1,.06-.48,16.77,16.77,0,0,0,6.26-4.25c1.34-1.36,2.06-2.65,2.06-3.62a1.59,1.59,0,0,0-.12-.6,1.32,1.32,0,0,0-1.25-.84c-1.78-.08-4.78,2.23-7.51,7.6a5.6,5.6,0,0,0-.35.83,7.65,7.65,0,0,1-4.9,0,.56.56,0,0,0-.73.3.54.54,0,0,0,.29.73,8.49,8.49,0,0,0,5.08.16v.11a1.94,1.94,0,0,0,.8,1.7c1.29.84,4.13.12,8.24-4.08a15.41,15.41,0,0,0-.66,2.45v.12a.57.57,0,0,0,.35.53c.44.19.7-.19.92-.51l.58-.85a39.27,39.27,0,0,1,2.36-3.29,8.09,8.09,0,0,0-.18,1.53,1.79,1.79,0,0,0,.73,1.66c.47.27,1.22.37,2.86-.6a1.08,1.08,0,0,0,.57.63c1.05.49,3-.56,5.07-2.53a14.39,14.39,0,0,0-.54,1.36,1.07,1.07,0,0,0,0,.18.57.57,0,0,0,.34.53c.45.2.74-.2,1-.52l.62-.89a33.87,33.87,0,0,1,2.43-3.27,3,3,0,0,0,1.25,1.53,2.88,2.88,0,0,0-.29,1.14,1,1,0,0,0,.44.89c.53.36,1.34.16,2.16-.29-2.66,2.64-3.89,5.28-3.92,6.45a.17.17,0,0,0,0,.07,1,1,0,0,0,.53,1c.4.2.89.08,1.47-.37,2-1.6,3.47-5.39,4.22-7.7A21.83,21.83,0,0,1,43,36.1a4.56,4.56,0,0,0-.68,2.08,1.85,1.85,0,0,0,.08.58,1.08,1.08,0,0,0,.91.71c.93.1,2.21-.87,3.72-2.73-.13.37-.26.73-.38,1.08-4.2,3.32-6.09,6.85-6.33,8.77,0,.16,0,.3,0,.44a1.35,1.35,0,0,0,.59,1.28c.32.18.86.26,1.66-.35s3-4,5.06-9.46A33.06,33.06,0,0,1,59,33,.58.58,0,0,0,59.41,32.49Z"/><path class="cls-2" d="M27.33,35.87a.84.84,0,0,1,.4-.12,2.15,2.15,0,0,1-.73.94l-1.14,1A3.69,3.69,0,0,1,27.33,35.87Z"/><path class="cls-2" d="M16.25,32.92c.21,0,.24.09.26.13a.72.72,0,0,1,0,.2c0,.49-.43,1.5-1.73,2.84a16.54,16.54,0,0,1-4.89,3.58C12.51,34.67,15.17,32.87,16.25,32.92Z"/><path class="cls-2" d="M34.52,45.26l-.17.12c.06-.81,1.06-3,3.32-5.33C36.91,42,35.83,44.23,34.52,45.26Z"/><path class="cls-2" d="M35.68,38.35a2.69,2.69,0,0,1,.27-.8,4.3,4.3,0,0,0,2.16-.6A5.24,5.24,0,0,1,35.68,38.35Z"/><path class="cls-2" d="M36.8,36.3a5.87,5.87,0,0,1,3-2.36,1.44,1.44,0,0,1,.43,0,1,1,0,0,1-.13.14A10.16,10.16,0,0,1,36.8,36.3Z"/><path class="cls-2" d="M41.82,47.08a1.7,1.7,0,0,1-.39.24.75.75,0,0,1,0-.29,4,4,0,0,1,.27-1.26A15.54,15.54,0,0,1,45.75,40C44,44.18,42.42,46.62,41.82,47.08Z"/><path class="cls-3" d="M71.06,30.25l-9.37-.54c-.36-.9-3.43-8.8-3.43-8.8a.83.83,0,0,0-.78-.53.85.85,0,0,0-.79.53l-3.44,8.83-9.41.5a.84.84,0,0,0-.8.83s0,0,0,0a.84.84,0,0,0,.88.8l10-.53a.82.82,0,0,0,.73-.53l2.87-7.32c1,2.48,2.84,7.29,2.84,7.29a.84.84,0,0,0,.73.54l7.77.44-6,5a.84.84,0,0,0-.3.64.72.72,0,0,0,0,.21s1.27,5,1.93,7.54L58,41A.85.85,0,0,0,57,41l-6.62,4.2,1.92-6.94a.9.9,0,0,0,0-.23.85.85,0,0,0-.62-.81.84.84,0,0,0-1,.59l-2.51,9.07a.84.84,0,0,0,.3.89.86.86,0,0,0,1,0l8-5.09,7.87,5.08a.85.85,0,0,0,1,0,.84.84,0,0,0,.35-.69.57.57,0,0,0,0-.21l-2.33-9.1,7.23-6a.85.85,0,0,0,.31-.65.88.88,0,0,0,0-.26A.85.85,0,0,0,71.06,30.25Z"/><polygon class="cls-3" points="73.08 74.82 1.76 74.82 1.76 58.88 0 58.88 0 74.82 0 76.57 1.76 76.57 73.08 76.57 74.83 76.57 74.83 58.88 73.08 58.88 73.08 74.82"/><polygon class="cls-3" points="9.5 70.32 5.97 70.32 5.97 67.23 9.18 67.23 9.18 66.24 5.97 66.24 5.97 63.38 9.43 63.38 9.43 62.39 4.84 62.39 4.84 71.3 9.5 71.3 9.5 70.32"/><polygon class="cls-3" points="11.95 63.58 11.97 63.58 15.48 71.3 17.04 71.3 17.04 62.39 16.03 62.39 16.03 70.03 16.01 70.03 12.53 62.39 10.93 62.39 10.93 71.3 11.95 71.3 11.95 63.58"/><polygon class="cls-3" points="23.29 70.32 19.75 70.32 19.75 67.23 22.97 67.23 22.97 66.24 19.75 66.24 19.75 63.38 23.21 63.38 23.21 62.39 18.63 62.39 18.63 71.3 23.29 71.3 23.29 70.32"/><path class="cls-3" d="M25.79,67.21h1.33a1.17,1.17,0,0,1,1.35,1.13,10,10,0,0,0,.35,3H30A13.14,13.14,0,0,1,29.7,69c-.07-1.79-.44-2.14-1.46-2.29v0a1.93,1.93,0,0,0,1.63-2,2,2,0,0,0-2.14-2.22H24.66V71.3h1.14Z"/><path class="cls-2" d="M25.79,63.38h1.72a1.21,1.21,0,0,1,1.2,1.36c0,.78-.4,1.49-1.21,1.49H25.79Z"/><path class="cls-3" d="M33.8,71.49a5.63,5.63,0,0,0,2.73-.66V66.49H33.74v1h1.65v2.67a2.85,2.85,0,0,1-1.59.4c-1.08,0-1.65-.5-1.65-2.45v-3c0-1.86,1.28-1.92,1.65-1.92,1.15,0,1.58.57,1.58,1.62h1.19c.08-1.87-.84-2.57-2.77-2.57A2.59,2.59,0,0,0,31,65.12v2.93C31,70.52,31.9,71.49,33.8,71.49Z"/><polygon class="cls-3" points="39.55 71.3 40.69 71.3 40.69 67.91 43.12 62.39 41.97 62.39 40.17 66.7 38.43 62.39 37.16 62.39 39.55 67.91 39.55 71.3"/><path class="cls-3" d="M48.44,71.49c1.48,0,2.77-.6,2.77-2.49,0-2.83-4-2.54-4-4.5a1.25,1.25,0,0,1,1.37-1.32c1.08,0,1.39.64,1.38,1.62h1.19a2.2,2.2,0,0,0-2.47-2.61A2.36,2.36,0,0,0,46,64.63c0,2.68,4,2.46,4,4.43,0,1.07-.69,1.45-1.6,1.45A1.42,1.42,0,0,1,47,68.91v-.25H45.84C45.8,69.5,45.8,71.52,48.44,71.49Z"/><polygon class="cls-3" points="54.07 71.3 55.21 71.3 55.21 63.38 57.56 63.38 57.56 62.39 51.72 62.39 51.72 63.38 54.07 63.38 54.07 71.3"/><polygon class="cls-3" points="57.76 71.3 58.43 69.18 61.87 69.18 62.52 71.3 63.79 71.3 60.89 62.39 59.44 62.39 56.62 71.3 57.76 71.3"/><polygon class="cls-2" points="60.1 63.44 60.13 63.44 61.57 68.2 58.71 68.2 60.1 63.44"/><path class="cls-3" d="M65.8,67.21h1.33a1.18,1.18,0,0,1,1.35,1.13,9.71,9.71,0,0,0,.35,3H70a13.1,13.1,0,0,1-.3-2.33c-.06-1.79-.43-2.14-1.46-2.29v0a1.93,1.93,0,0,0,1.63-2,2,2,0,0,0-2.14-2.22H64.67V71.3H65.8Z"/><path class="cls-2" d="M65.8,63.38h1.71a1.21,1.21,0,0,1,1.21,1.36c0,.78-.4,1.49-1.21,1.49H65.8Z"/></svg>