<svg enable-background="new 0 0 241 241" viewBox="0 0 241 241" xmlns="http://www.w3.org/2000/svg"><path d="m40.3 95.9c0-14.5.1-29.9-.1-45.2 0-2.9.7-4.4 3.6-5.5 25.9-10 51.8-20.1 77.6-30.3 1.7-.7 3.6-.7 5.2 0 25.4 9.8 50.9 19.5 76.4 29.1 3.3 1.2 4.5 2.9 4.5 6.5 0 29.8.1 59.6.3 89.4 0 2.8-.5 5.6-1.5 8.3-5.2 16.6-15.5 29.6-28.6 40.6-15.1 12.6-31.7 23.1-49.1 32.4-2 1.1-3.8 2.3-6.5.9-19.7-10.6-39-21.6-55.8-36.6-10.9-9.8-19.4-21.4-23.9-35.6-.9-2.8-1.4-5.8-1.5-8.8.1-14.8 0-29.6-.6-45.2zm157.6 1.8c0-13.5 0-27 0-40.5 0-2 .2-3.6-2.5-4.6-22-8.4-43.9-17-65.8-25.5-3.3-1.4-6.9-1.4-10.2 0-3.2 1.3-6.5 2.4-9.8 3.7-18 7-36 14.1-54.2 20.9-3.3 1.3-4.4 2.7-4.4 6.3.1 26.8.1 53.6.1 80.4.1 1.6.2 3.3.5 4.9 1.8 11.8 9.2 20.5 16.4 29 7.4 8.7 16.7 15.4 26.3 21.7 8.3 5.4 16.8 10.5 25.5 15.4 3.5 2 6.5 1.8 9.8-.2 9.6-5.9 19.6-11 28.7-17.8 10.2-7.6 20.3-15.1 27.8-25.8 7.8-11 12.7-22.2 11.9-35.9-.6-10.7-.1-21.3-.1-32z" fill="#42864f"/><path d="m197.9 97.7c0 10.7-.5 21.3.1 32 .8 13.7-4.2 25-11.9 35.9-7.6 10.7-17.7 18.1-27.8 25.8-9 6.8-19.1 11.9-28.7 17.8-3.3 2-6.3 2.2-9.8.2-8.6-4.9-17.1-10-25.5-15.4-9.6-6.3-18.9-13-26.3-21.7-7.3-8.5-14.7-17.2-16.4-29-.3-1.6-.5-3.3-.5-4.9 0-26.8.1-53.6-.1-80.4 0-3.6 1.1-5.1 4.6-6.4 18.1-6.8 36.1-13.9 54.2-20.9 3.2-1.3 6.5-2.4 9.8-3.7 3.3-1.4 6.9-1.4 10.2 0 21.9 8.6 43.8 17.2 65.8 25.5 2.6 1 2.5 2.6 2.5 4.6-.2 13.6-.2 27.1-.2 40.6zm-73.9-25.2c0-11 .1-22 0-32.9 0-3.7-.7-4.1-4.1-2.8-5.4 2-10.8 4.2-16.2 6.3-13 5-25.9 10.3-39 15-4 1.5-4.6 3.7-4.6 7.4.1 23.6.1 47.3 0 70.9 0 4.1.9 8.2 2.6 12 4.9 10.8 13.1 19.2 21.7 26.9 10.6 9.5 22.9 17 35.5 23.6 4.2 2.2 4.2 2.3 4.2-2.7 0-13 0-26 0-38.9 8.5-.3 16.8-2.9 23.9-7.5 23.5-15.4 24.7-51.8 2.1-68.5-7.6-5.7-16.7-8.7-26.1-8.8z" fill="#2f5970"/><path d="m124 157.2v38.9c0 5 0 4.9-4.2 2.7-12.6-6.7-24.9-14.1-35.5-23.6-8.5-7.7-16.8-16-21.7-26.9-1.8-3.8-2.7-7.9-2.6-12 .1-23.6.1-47.3 0-70.9 0-3.7.6-6 4.6-7.4 13.1-4.8 26-10 39-15 5.4-2.1 10.8-4.2 16.2-6.3 3.5-1.3 4.1-.9 4.1 2.8v32.9.6c-5.8-.9-11.2.8-16.4 3.1-16.2 6.9-26.4 23.4-25.1 41 .7 13 6.4 24 17.1 31.7 7.2 5.2 15.3 8.6 24.5 7.7.1.3 0 .5 0 .7z" fill="#52a6d0"/><path d="m124 72.5c9.4.1 18.5 3.2 26 8.8 22.6 16.7 21.4 53.1-2.1 68.5-7.1 4.6-15.4 7.2-23.9 7.5 0-.2 0-.5 0-.7l.1-22.7c3.6 0 7.3 0 10.9-.1 5-.1 6.8-2 6.9-7 .1-3.8 0-7.6 0-11.4 0-2.5-.7-4.7-3-5.8-2-1-2.3-2.5-2.3-4.4-.3-8.8-4.2-13-12.7-14.2 0-5.9 0-11.8 0-17.7.1-.4.1-.6.1-.8z" fill="#e7eaeb"/><path d="m124.1 133.8-.1 22.7c-9.3.9-17.3-2.5-24.5-7.7-10.7-7.7-16.4-18.7-17.1-31.7-1.3-17.7 8.9-34.2 25.2-41 5.2-2.2 10.6-4 16.4-3.1v17.7l.2.4c-6.6.1-10.9 3.5-12.3 9.9-.8 3.5.2 7.8-4 10-.9.5-.8 1.8-.8 2.8 0 4.8-.1 9.6 0 14.5.1 3.3 2.1 5.3 5.3 5.4 4 .1 8 .5 11.9-.3z" fill="#fbfcfd"/><path d="m123.9 90.8c8.5 1.2 12.4 5.5 12.7 14.2.1 2 .3 3.4 2.3 4.4 2.3 1.1 3.1 3.3 3 5.8-.1 3.8.1 7.6 0 11.4-.1 5-2 6.9-6.9 7-3.6.1-7.3.1-10.9.1l.1-.4c-.1-8.2-.2-16.7-.2-24.9 2-.4 5.8 1.6 5.8-3.1 0-4.2-.9-5.9-4.9-7.1l-.8-.6v-6.6z" fill="#345c74"/><path d="m124.1 91.2v6.6c-1.1.3-2.1.8-3.1 1.4-2.6 1.9-2.6 4.9-2 7.6s3.5 1.6 5 1.9c.1.3.1.1.1.4.1 8.2.1 16.4.2 24.5-4 .8-8 .4-11.9.3-3.3-.1-5.2-2.1-5.3-5.4-.1-4.8 0-9.6 0-14.5 0-1 0-2.3.8-2.8 4.2-2.3 3.2-6.5 4-10 1.3-6.5 5.6-10 12.2-10z" fill="#5aa8d1"/><path d="m124 108.6c-1.4.1-4.7.6-5.1-2.3-.4-2.7-.6-5.2 2.1-7.2 1-.6 2-1.1 3.1-1.4v.9c-.2 3.3.2 6.1-.1 10z" fill="#f6f8fa"/><path d="m124.1 97.7c4 1.2 5.7 2.6 5.7 6.8.5 6.1-4.3 3.6-5.8 4" fill="#d8dee3"/></svg>