<svg viewBox="0 0 71.83 69.59" xmlns="http://www.w3.org/2000/svg" xmlns:xlink="http://www.w3.org/1999/xlink"><linearGradient id="a" gradientTransform="matrix(71.83 0 0 -69.59 45757.48 28878.71)" gradientUnits="userSpaceOnUse" x1="-636.51" x2="-636.51" y1="415" y2="414"><stop offset="0" stop-color="#8dd9ff"/><stop offset=".03" stop-color="#00acff"/><stop offset="1" stop-color="#3febd8"/></linearGradient><linearGradient id="b" gradientTransform="matrix(8.98 0 0 -4.49 5165.62 1587.2)" x1="-573.55" x2="-573.55" xlink:href="#a" y1="342.49" y2="341.49"/><linearGradient id="c" gradientTransform="matrix(8.98 0 0 -4.49 5179.09 1587.2)" x1="-573.55" x2="-573.55" xlink:href="#a" y1="342.49" y2="341.49"/><linearGradient id="d" gradientTransform="matrix(8.98 0 0 -4.49 5192.66 1587.2)" x1="-573.55" x2="-573.55" xlink:href="#a" y1="342.49" y2="341.49"/><linearGradient id="e" gradientTransform="matrix(8.98 0 0 -4.49 5165.62 1578.22)" x1="-573.55" x2="-573.55" xlink:href="#a" y1="342.49" y2="341.49"/><linearGradient id="f" gradientTransform="matrix(8.98 0 0 -4.49 5179.09 1578.22)" x1="-573.55" x2="-573.55" xlink:href="#a" y1="342.49" y2="341.49"/><linearGradient id="g" gradientTransform="matrix(8.98 0 0 -4.49 5192.66 1578.22)" x1="-573.55" x2="-573.55" xlink:href="#a" y1="342.49" y2="341.49"/><linearGradient id="h" gradientTransform="matrix(8.98 0 0 -4.49 5206.12 1578.22)" x1="-573.55" x2="-573.55" xlink:href="#a" y1="342.49" y2="341.49"/><linearGradient id="i" gradientTransform="matrix(8.88 0 0 -4.49 5117.98 1568.82)" x1="-572.79" x2="-572.79" xlink:href="#a" y1="342.48" y2="341.48"/><linearGradient id="j" gradientTransform="matrix(8.98 0 0 -4.49 5192.66 1569.24)" x1="-573.55" x2="-573.55" xlink:href="#a" y1="342.49" y2="341.49"/><linearGradient id="k" gradientTransform="matrix(8.98 0 0 -4.49 5206.13 1569.24)" x1="-573.55" x2="-573.55" xlink:href="#a" y1="342.49" y2="341.49"/><path d="m62.85 2.24h-2.4c0-.07 0-.13 0-.2a2.26 2.26 0 0 0 -2.45-2.04 6.75 6.75 0 0 0 -4.4 2.24h-13.48a1.49 1.49 0 0 0 0-.21 2.24 2.24 0 0 0 -2.42-2.03 6.73 6.73 0 0 0 -4.4 2.23h-13.13a1.23 1.23 0 0 0 0-.2 2.25 2.25 0 0 0 -2.44-2 6.75 6.75 0 0 0 -4.4 2.24h-4.33a9 9 0 0 0 -9 9v49.34a9 9 0 0 0 9 9h53.85a9 9 0 0 0 9-9v-49.39a9 9 0 0 0 -9-8.98zm4.49 58.37a4.48 4.48 0 0 1 -4.48 4.49h-53.86a4.49 4.49 0 0 1 -4.49-4.49v-38.16h44.87a2.25 2.25 0 0 0 0-4.49h-44.89v-6.74a4.49 4.49 0 0 1 4.51-4.49h2.63a6.75 6.75 0 0 0 6.37 6.73h.14a2.24 2.24 0 0 0 .09-4.46 2.31 2.31 0 0 1 -2.13-2.27h15.45a6.78 6.78 0 0 0 6.34 6.73h.11a2.24 2.24 0 0 0 .18-4.46 2.3 2.3 0 0 1 -2.18-2.27h15.88a6.78 6.78 0 0 0 6.34 6.73h.15a2.25 2.25 0 0 0 .14-4.46 2.3 2.3 0 0 1 -2.14-2.25h6.48a4.49 4.49 0 0 1 4.49 4.49v6.76h-9a2.24 2.24 0 0 0 0 4.48h9z" fill="url(#a)"/><path d="m18 49.4h-4.53a2.25 2.25 0 0 0 -.1 4.49h4.63a2.25 2.25 0 0 0 0-4.49z" fill="url(#b)"/><path d="m31.43 49.4h-4.49a2.25 2.25 0 0 0 -.1 4.49h4.59a2.25 2.25 0 0 0 0-4.49z" fill="url(#c)"/><path d="m44.9 49.4h-4.49a2.25 2.25 0 0 0 0 4.49h4.49a2.25 2.25 0 0 0 .1-4.49z" fill="url(#d)"/><path d="m18 40.42h-4.53a2.25 2.25 0 0 0 -.1 4.49h4.63a2.25 2.25 0 0 0 0-4.49z" fill="url(#e)"/><path d="m31.43 40.42h-4.49a2.25 2.25 0 0 0 -.1 4.49h4.59a2.25 2.25 0 0 0 0-4.49z" fill="url(#f)"/><path d="m44.9 40.42h-4.49a2.25 2.25 0 0 0 0 4.49h4.49a2.25 2.25 0 0 0 .1-4.49z" fill="url(#g)"/><path d="m58.36 40.42h-4.49a2.25 2.25 0 0 0 0 4.49h4.49a2.25 2.25 0 0 0 .1-4.49z" fill="url(#h)"/><path d="m31.43 31.44h-4.49a2.25 2.25 0 0 0 0 4.49h4.49a2.25 2.25 0 0 0 0-4.49z" fill="url(#i)"/><path d="m44.9 31.44h-4.49a2.25 2.25 0 0 0 -2.2 2.3 2.23 2.23 0 0 0 2.2 2.19h4.49a2.25 2.25 0 1 0 .1-4.49z" fill="url(#j)"/><path d="m53.87 31.44a2.25 2.25 0 0 0 0 4.49h4.49a2.25 2.25 0 0 0 .1-4.49z" fill="url(#k)"/></svg>