<svg viewBox="0 0 78.92 78.88" xmlns="http://www.w3.org/2000/svg" xmlns:xlink="http://www.w3.org/1999/xlink"><linearGradient id="a" gradientTransform="matrix(78.92 0 0 -78.88 50102.58 33100.26)" gradientUnits="userSpaceOnUse" x1="-634.35" x2="-634.35" y1="419.64" y2="418.64"><stop offset="0" stop-color="#8dd9ff"/><stop offset=".03" stop-color="#00acff"/><stop offset="1" stop-color="#3febd8"/></linearGradient><linearGradient id="b" gradientTransform="matrix(31.3 0 0 -22.79 19509.02 9347.77)" x1="-621.96" x2="-621.96" xlink:href="#a" y1="408.91" y2="407.91"/><path d="m39.44 78.88a3 3 0 0 1 -1.24-.27c-26.78-12.14-38.2-32.24-38.2-67.2a3 3 0 0 1 3-3 2.68 2.68 0 0 1 1 .17 34.54 34.54 0 0 0 10.32 1.8 33.45 33.45 0 0 0 23-9.52 3 3 0 0 1 4.18 0 33.42 33.42 0 0 0 23.12 9.52 34.85 34.85 0 0 0 10.27-1.8 3 3 0 0 1 3.83 1.83 3.1 3.1 0 0 1 .17 1c0 35-11.43 55.06-38.2 67.2a3.13 3.13 0 0 1 -1.25.27zm-33.38-63.5c1 36.46 16.45 49.26 33.38 57.19 27.7-13.12 32.9-35 33.4-57.19a41 41 0 0 1 -8.11 1h-.09a39.44 39.44 0 0 1 -25.2-9.32 39.49 39.49 0 0 1 -25.2 9.32 41.77 41.77 0 0 1 -8.18-1z" fill="url(#a)"/><path d="m36.64 50.85a3 3 0 0 1 -2.12-.85l-8.41-8.41a3 3 0 0 1 4.09-4.39l.15.15 6.29 6.29 14.69-14.7a3 3 0 1 1 4.25 4.24l-16.82 16.82a3 3 0 0 1 -2.12.85z" fill="url(#b)"/></svg>