<svg viewBox="0 0 68.69 88.59" xmlns="http://www.w3.org/2000/svg" xmlns:xlink="http://www.w3.org/1999/xlink"><linearGradient id="a" gradientTransform="matrix(68.69 0 0 -88.59 43866.36 37666.11)" gradientUnits="userSpaceOnUse" x1="-638.07" x2="-638.07" y1="425.17" y2="424.17"><stop offset="0" stop-color="#8dd9ff"/><stop offset=".03" stop-color="#00acff"/><stop offset="1" stop-color="#3febd8"/></linearGradient><linearGradient id="b" gradientTransform="matrix(6.38 0 0 -6.38 3496.4 2405.2)" x1="-545.87" x2="-545.87" xlink:href="#a" y1="375.83" y2="374.83"/><linearGradient id="c" gradientTransform="matrix(6.38 0 0 -6.38 3509.15 2405.2)" x1="-545.87" x2="-545.87" xlink:href="#a" y1="375.83" y2="374.83"/><linearGradient id="d" gradientTransform="matrix(6.38 0 0 -6.38 3521.9 2405.2)" x1="-545.87" x2="-545.87" xlink:href="#a" y1="375.83" y2="374.83"/><linearGradient id="e" gradientTransform="matrix(6.38 0 0 -6.38 3534.65 2405.2)" x1="-545.87" x2="-545.87" xlink:href="#a" y1="375.83" y2="374.83"/><linearGradient id="f" gradientTransform="matrix(49.86 0 0 -49.86 31668.47 21074.63)" x1="-634.5" x2="-634.5" xlink:href="#a" y1="422.2" y2="421.2"/><linearGradient id="g" gradientTransform="matrix(27.03 0 0 -27.13 16890.98 11336.31)" x1="-623.53" x2="-623.53" xlink:href="#a" y1="416.5" y2="415.5"/><path d="m0 0v88.59h68.69v-88.59zm63.75 5.71v12.75h-57.38v-12.75zm-57.38 76.5v-60.57h57.38v60.57z" fill="url(#a)"/><circle cx="15.94" cy="12.08" fill="url(#b)" r="3.19"/><circle cx="28.69" cy="12.08" fill="url(#c)" r="3.19"/><circle cx="41.44" cy="12.08" fill="url(#d)" r="3.19"/><circle cx="54.19" cy="12.08" fill="url(#e)" r="3.19"/><path d="m34.72 25.41a24.93 24.93 0 1 0 24.92 24.93 24.92 24.92 0 0 0 -24.92-24.93zm.35 44.05a19.13 19.13 0 1 1 19.12-19.13 19.12 19.12 0 0 1 -19.13 19.13z" fill="url(#f)"/><path d="m34.71 37.58a12.53 12.53 0 1 0 8.92 3.66 12.53 12.53 0 0 0 -8.92-3.66zm0 19.93a7.29 7.29 0 1 0 0-.16z" fill="url(#g)"/></svg>