<svg viewBox="0 0 56.46 60.88" xmlns="http://www.w3.org/2000/svg" xmlns:xlink="http://www.w3.org/1999/xlink"><linearGradient id="a" gradientTransform="matrix(56.46 0 0 -60.88 36270.41000000001 24912.81)" gradientUnits="userSpaceOnUse" x1="-641.92" x2="-641.92" y1="409.2" y2="408.2"><stop offset="0" stop-color="#8dd9ff"/><stop offset=".03" stop-color="#00acff"/><stop offset="1" stop-color="#3febd8"/></linearGradient><path d="m56 44.22a2.13 2.13 0 0 0 -1.75-.88h-4.37a2.14 2.14 0 0 0 -1.88 1.19 10.9 10.9 0 0 1 -1.89 2.9 8.66 8.66 0 0 1 -2.34-2.43 26 26 0 1 0 -17.72 7 2.17 2.17 0 0 0 0-4.33 21.67 21.67 0 1 1 21.67-21.67 21.47 21.47 0 0 1 -6.5 15.41c-.8-1.17-1.67-2.41-2.64-3.71a1.76 1.76 0 0 1 -.24-.3 23.52 23.52 0 0 0 2.88-11.4c0-10.84-6.8-19.5-15.17-19.5s-15.17 8.67-15.17 19.5c0 8.66 4.33 16.12 10.68 18.63a1.87 1.87 0 0 0 .8.15 2.17 2.17 0 0 0 .78-4.18c-4.66-1.84-7.93-7.84-7.93-14.6 0-8.36 4.86-15.17 10.84-15.17s10.83 6.81 10.83 15.17a19.37 19.37 0 0 1 -1.67 8c-6.15-5.4-11.74-3.66-12-3.57a2.16 2.16 0 0 0 -1.47 2.06v4.33a2.17 2.17 0 0 0 1.62 2.18c3.82 1 4.92 3.38 6.72 7.39a35.47 35.47 0 0 0 7.43 11.55 8.69 8.69 0 0 0 6.2 2.94 7.51 7.51 0 0 0 1.63-.21c6.71-1.69 10.53-13.22 11-14.52a2.2 2.2 0 0 0 -.34-1.93zm-11.68 12.12c-.44 0-1.72.41-3.73-1.63a31 31 0 0 1 -6.5-10.25c-1.73-3.85-3.38-7.54-8-9.3v-.82c1.91 0 5.44 1 9.1 5.87 1.17 1.56 2.17 3.06 3.15 4.34 3 4.33 5 7.23 8 7a6.13 6.13 0 0 0 4.49-3.4c-1.6 3.64-4.02 7.65-6.51 8.19z" fill="url(#a)"/></svg>