<svg viewBox="0 0 114.77 84.16" xmlns="http://www.w3.org/2000/svg" xmlns:xlink="http://www.w3.org/1999/xlink"><linearGradient id="a" gradientTransform="matrix(92.34 0 0 -66.87 57048.6 28193.54)" gradientUnits="userSpaceOnUse" x1="-617.2" x2="-617.2" y1="421.49" y2="420.49"><stop offset="0" stop-color="#8dd9ff"/><stop offset=".03" stop-color="#00acff"/><stop offset="1" stop-color="#3febd8"/></linearGradient><linearGradient id="b" gradientTransform="matrix(4.85 0 0 -12.85 2469.48 5169.54)" x1="-495.61" x2="-495.61" xlink:href="#a" y1="400.17" y2="399.17"/><linearGradient id="c" gradientTransform="matrix(13.48 0 0 -29.59 7811.58 12308.21)" x1="-577.78" x2="-577.78" xlink:href="#a" y1="415.1" y2="414.1"/><linearGradient id="d" gradientTransform="matrix(112.52 78.86 7.14 -10.18 66596.84 53243.42)" x1="-619.28" x2="-618.35" xlink:href="#a" y1="432.44" y2="432.44"/><g stroke="#52a7d2" stroke-miterlimit="10"><path d="m101.52 44.34h-25.12a23 23 0 0 0 -1.4-18.24 4.76 4.76 0 0 1 -.35-3.9l.73-2.09a8 8 0 0 0 -10.11-10.11c-1.9.73-4 1.59-6 .38-21.61-13.01-58.82 24.2-45.79 45.83 1.18 1.91.35 4.12-.38 6a8 8 0 0 0 10.09 10.08l2.08-.74a4.83 4.83 0 0 1 3.9.35c9.28 4.78 18.58 2.77 27.85-3.31 18.32 14.53 46.3.89 46.1-22.66a1.6 1.6 0 0 0 -1.6-1.59zm-17.14 17.87-7.33-14.69h16.52a19 19 0 0 1 -9.19 14.69zm-3.75 1.79a19 19 0 0 1 -13.23-.35l7.07-14.15 7.06 14.14a5.78 5.78 0 0 1 -.9.36zm-25.26-16.48h16.52l-7.34 14.69a18.93 18.93 0 0 1 -9.18-14.69zm-.92 18.94c-8.52 5.46-16.92 6.36-23.88 2.66a8 8 0 0 0 -3.85-1 13.68 13.68 0 0 0 -4.66 1.18 4.78 4.78 0 0 1 -6-2.88 4.69 4.69 0 0 1 0-3.18l.73-2.1a8 8 0 0 0 -.57-6.47c-11.33-18.99 22.53-52.86 41.55-41.48a7.91 7.91 0 0 0 6.48.57l2.09-.76a4.77 4.77 0 0 1 6 2.88 4.69 4.69 0 0 1 0 3.18l-.73 2.1a7.93 7.93 0 0 0 .57 6.46 19.92 19.92 0 0 1 .88 16.7h-25.65c-2.82.15-1.19 5.14-1.06 6.94a28.54 28.54 0 0 0 8.16 15.18zm20 4.94a25.63 25.63 0 0 1 -25.45-23.88h3.19c.81 15.48 18.4 25.56 32.18 18.34a22.1 22.1 0 0 0 12.38-18.34h3.18a25.46 25.46 0 0 1 -25.46 23.87z" fill="url(#a)"/><path d="m66.26 39.28a1.6 1.6 0 1 0 3.09.82 1.7 1.7 0 0 0 0-.22 15.93 15.93 0 0 0 -1.55-10.71 1.6 1.6 0 0 0 -2.8 1.52 12.81 12.81 0 0 1 1.26 8.59z" fill="url(#b)"/><path d="m29.49 24.83c-3.68 3.69-15.21 16.63-8.83 28.34a1.62 1.62 0 1 0 2.88-1.48c-5.33-9.77 5-21.26 8.29-24.56a1.6 1.6 0 0 0 -2.26-2.26z" fill="url(#c)"/></g><path d="m9.79 1.13 102.33 71.72a6.22 6.22 0 0 1 1.52 8.66 6.22 6.22 0 0 1 -8.64 1.49l-102.35-71.69a6.22 6.22 0 0 1 -1.52-8.66 6.22 6.22 0 0 1 8.66-1.52z" fill="url(#d)"/><path d="m8.64 2.76 102.36 71.72a4.22 4.22 0 0 1 1 5.88 4.21 4.21 0 0 1 -5.87 1l-102.33-71.69a4.22 4.22 0 0 1 -1-5.87 4.23 4.23 0 0 1 5.84-1.04z" fill="none" stroke="#fff" stroke-width="4"/></svg>