<svg viewBox="0 0 85 85" xmlns="http://www.w3.org/2000/svg"><circle cx="42.5" cy="42.5" fill="#6cbdc4" r="42.5"/><path d="m32.05 58.55a14.38 14.38 0 0 0 20.33.57c.2-.18.39-.38.58-.57a15.84 15.84 0 0 0 0-21.76 14.39 14.39 0 0 0 -20.32-.59c-.2.19-.4.39-.59.59a15.84 15.84 0 0 0 0 21.76zm16.29-35.81a2.36 2.36 0 0 0 -1.78-.74 2.23 2.23 0 0 0 -1.74.79 2.66 2.66 0 0 0 -.69 1.86 2.51 2.51 0 0 0 .69 1.8 2.35 2.35 0 0 0 1.73.72 2.48 2.48 0 0 0 1.79-.72 2.37 2.37 0 0 0 .75-1.8 2.57 2.57 0 0 0 -.75-1.86zm7.38 0a2.4 2.4 0 0 0 -1.79-.74 2.23 2.23 0 0 0 -1.73.79 2.7 2.7 0 0 0 -.69 1.86 2.51 2.51 0 0 0 .69 1.8 2.35 2.35 0 0 0 1.73.72 2.48 2.48 0 0 0 1.79-.72 2.37 2.37 0 0 0 .75-1.8 2.57 2.57 0 0 0 -.75-1.86zm1.56-5.83a4.75 4.75 0 0 1 3.52 1.44 4.85 4.85 0 0 1 1.44 3.65v41.1a4.85 4.85 0 0 1 -1.44 3.6 4.74 4.74 0 0 1 -3.52 1.44h-29.56a4.77 4.77 0 0 1 -3.52-1.44 4.88 4.88 0 0 1 -1.43-3.6v-41.1a4.9 4.9 0 0 1 1.43-3.6 4.85 4.85 0 0 1 3.52-1.44zm-21.71 38 13.86-14.57a10.6 10.6 0 0 1 0 14.54 9.5 9.5 0 0 1 -13.43.43c-.14-.14-.29-.31-.43-.43z" fill="#fff"/></svg>