<svg viewBox="0 0 84.84 84.84" xmlns="http://www.w3.org/2000/svg"><path d="m0 42.34a42.41 42.41 0 1 1 42.36 42.48 42.4 42.4 0 0 1 -42.36-42.48z" fill="#00bbed"/><path d="m50.84 29.29a20.71 20.71 0 0 0 -8.29 1.71 15.89 15.89 0 0 1 .37-1.66 20.9 20.9 0 0 1 .92-2.66 17.47 17.47 0 0 1 1.49-2.8 14.47 14.47 0 0 1 1-1.27 9.28 9.28 0 0 1 1-1.12 6.48 6.48 0 0 1 1.06-.9 7.12 7.12 0 0 1 1-.69l.91-.52.75-.3.65-.28-1.48-3.5-.83.43-1 .52-1.08.75a10.45 10.45 0 0 0 -1.25 1 9.46 9.46 0 0 0 -1.24 1.29 11 11 0 0 0 -1.16 1.48 15.11 15.11 0 0 0 -1 1.64 19.57 19.57 0 0 0 -1.4 3.38 22.28 22.28 0 0 0 -.73 3 11.6 11.6 0 0 1 -.2 1.44 19.6 19.6 0 0 0 -6.35-1 18.55 18.55 0 0 0 -13.4 5.33 17.36 17.36 0 0 0 -5.16 13.11c0 9 9.82 26.79 21.06 26.79a40.88 40.88 0 0 0 6-.41 41.25 41.25 0 0 0 6 .41c11.22 0 21-17.76 21-26.79a17.38 17.38 0 0 0 -5.19-13.14 18.55 18.55 0 0 0 -13.45-5.24zm-.52 4a13.85 13.85 0 0 1 10.68 3.61 12.94 12.94 0 0 1 4.17 10.18 25.87 25.87 0 0 1 -4.44 12.92 38.35 38.35 0 0 0 1.49-10.76 16.49 16.49 0 0 0 -11.89-15.95zm-21.39-6.46c6.84 2.29 10-.21 10-.21a8.92 8.92 0 0 0 -3.49-9.62c-5.31-4.26-12.09-2.3-16.44-6.65-.05 0-.56 12.93 9.91 16.42z" fill="#fff"/><ellipse cx="42.42" cy="42.43" fill="none" rx="42.42" ry="42.4"/></svg>