<svg viewBox="0 0 67.1 64.75" xmlns="http://www.w3.org/2000/svg" xmlns:xlink="http://www.w3.org/1999/xlink"><linearGradient id="a" gradientTransform="matrix(54.61 -54.61 -25.65 -25.65 45624.96 -25540.91)" gradientUnits="userSpaceOnUse" x1="-651.59" x2="-651.59" y1="391.01" y2="390.01"><stop offset="0" stop-color="#8dd9ff"/><stop offset=".03" stop-color="#00acff"/><stop offset="1" stop-color="#3febd8"/></linearGradient><linearGradient id="b" gradientTransform="matrix(3.29 -3.29 -5.91 -5.91 3944.55 -60.43)" x1="-609.12" x2="-609.12" xlink:href="#a" y1="327.01" y2="326.01"/><linearGradient id="c" gradientTransform="matrix(11.09 -11.09 -26.44 -26.44 17502.01 3271.29)" x1="-640.92" x2="-640.92" xlink:href="#a" y1="391.58" y2="390.58"/><path d="m64.28 11.92a1.58 1.58 0 0 1 -1.88.38 6.66 6.66 0 0 0 -7.74 1.36c-3.78 3.78-2.42 9.16-2.42 9.21a1.65 1.65 0 0 1 -.47 1.56 1.67 1.67 0 0 1 -1.56.48s-5.43-1.37-9.2 2.4-2.42 9.15-2.41 9.21a1.65 1.65 0 0 1 -.6 1.73 1.54 1.54 0 0 1 -1.77.21c-.11-.12-4.22-2.15-8.87 2.5a8 8 0 0 0 -2.5 8.87 1.68 1.68 0 0 1 -2.2 2.17c-.11-.12-4.22-2.16-8.87 2.5a7.49 7.49 0 0 0 -2.5 4.5 4.17 4.17 0 0 0 .83 3.11 1.51 1.51 0 0 1 -.12 2.12 1.52 1.52 0 0 1 -2.13.16 31 31 0 0 1 -9.87-24.2 41.3 41.3 0 0 1 11.37-26.58l1.14-1.14c15.07-15.08 37.88-16.71 50.93-3.65l1 1a1.5 1.5 0 0 1 -.09 2zm-27.14 12.37a11.22 11.22 0 0 1 8.63-3.2 11.22 11.22 0 0 1 3.16-8.6 8.84 8.84 0 0 1 5-2.6c-10.68-8.11-26.93-6.07-37.93 4.76s-13.32 27.06-5.44 37.91a10.48 10.48 0 0 1 2.89-4.56 10.63 10.63 0 0 1 8.3-3.53 10.64 10.64 0 0 1 3.52-8.29 10.46 10.46 0 0 1 8.61-3.5 11.16 11.16 0 0 1 3.26-8.36z" fill="url(#a)"/><path d="m15.87 14.82c-.9.9-2.08 1.2-2.62.65l-3.94-3.94c-.54-.53-.25-1.72.69-2.62s2.09-1.2 2.63-.66l3.94 3.94c.51.54.21 1.72-.7 2.63z" fill="url(#b)"/><path d="m64.35 55.37c-2.7 3-7 3.61-9.72 1.33l-.27-.27-20.59-20.59a2.26 2.26 0 0 1 3.16-3.16l20.59 20.59c1.68 1.68 3.85-.41 4.1-.66s2.37-2.38.66-4.09a1.88 1.88 0 0 1 -.54-2 2.54 2.54 0 0 1 1.67-1.67 1.85 1.85 0 0 1 2 .54c2.46 2.5 2.12 6.84-.76 9.7z" fill="url(#c)"/></svg>