<svg viewBox="0 0 73.88 79.5" xmlns="http://www.w3.org/2000/svg" xmlns:xlink="http://www.w3.org/1999/xlink"><linearGradient id="a" gradientTransform="matrix(22.71 0 0 -22.71 14031.14 9338.84)" gradientUnits="userSpaceOnUse" x1="-616.1" x2="-616.1" y1="409.9" y2="408.9"><stop offset="0" stop-color="#8dd9ff"/><stop offset=".03" stop-color="#00acff"/><stop offset="1" stop-color="#3febd8"/></linearGradient><linearGradient id="b" gradientTransform="matrix(73.88 0 0 -79.5 47007.59 33444.5)" x1="-635.77" x2="-635.77" xlink:href="#a" y1="420.69" y2="419.69"/><path d="m37 28.39a11.36 11.36 0 1 0 11.32 11.36 11.37 11.37 0 0 0 -11.32-11.36zm0 17a5.68 5.68 0 1 1 5.68-5.68 5.68 5.68 0 0 1 -5.68 5.72z" fill="url(#a)"/><path d="m69.81 46.28-3.92-2.28a27.05 27.05 0 0 0 0-8.52l3.92-2.24a8.13 8.13 0 0 0 3-11.09l-2.66-4.55a8.18 8.18 0 0 0 -11.1-2.84l-3.92 2.24a28.78 28.78 0 0 0 -7.41-4.31v-4.69a8.12 8.12 0 0 0 -8.12-8h-5.28a8.12 8.12 0 0 0 -8.12 8.12v4.4a28.2 28.2 0 0 0 -7.41 4.32l-3.92-2.27a8.11 8.11 0 0 0 -11.1 2.83l-2.64 4.72a8.17 8.17 0 0 0 2.87 11.1l3.91 2.24a27.66 27.66 0 0 0 0 8.52l-3.91 2.24a8.12 8.12 0 0 0 -2.84 11.1l2.61 4.58a8.18 8.18 0 0 0 11.1 3l3.92-2.27a28.48 28.48 0 0 0 7.41 4.32v4.48a8.11 8.11 0 0 0 8.12 8.09h5.28a8.13 8.13 0 0 0 8.12-8.12v-4.4a28.53 28.53 0 0 0 7.41-4.32l3.92 2.28a8.12 8.12 0 0 0 11.09-3l2.64-4.57a8.18 8.18 0 0 0 -3-11.1zm-2 8.26-2.5 4.57a2.44 2.44 0 0 1 -3.31.89l-7.47-4.31-1.53 1.41a23.58 23.58 0 0 1 -8.86 5.17l-2 .62v8.52a2.44 2.44 0 0 1 -2.44 2.44h-5.38a2.45 2.45 0 0 1 -2.45-2.44v-8.52l-2-.62a23.71 23.71 0 0 1 -8.87-5.17l-1.5-1.39-7.5 4.29a2.44 2.44 0 0 1 -1.85.23 2.37 2.37 0 0 1 -1.47-1.14l-2.61-4.55a2.43 2.43 0 0 1 .76-3.36l.17-.07 7.44-4.29-.46-2a24.47 24.47 0 0 1 -.57-5.11 23.19 23.19 0 0 1 .6-5.12l.43-2-7.44-4.2a2.43 2.43 0 0 1 -.89-3.33l2.64-4.57a2.45 2.45 0 0 1 3.25-.93l7.47 4.32 1.53-1.39a23.58 23.58 0 0 1 8.86-5.17l2-.62v-8.52a2.43 2.43 0 0 1 2.38-2.5h5.36a2.44 2.44 0 0 1 2.4 2.44v8.52l2 .62a23.58 23.58 0 0 1 8.86 5.17l1.53 1.39 7.46-4.31a2.44 2.44 0 0 1 1.85-.23 2.36 2.36 0 0 1 1.48 1.14l2.67 4.58a2.45 2.45 0 0 1 -.8 3.36h-.08l-7.3 4.2.45 2a24.4 24.4 0 0 1 .57 5.11 23.17 23.17 0 0 1 -.6 5.11l-.42 2 7.33 4.32a2.44 2.44 0 0 1 1 3.32.75.75 0 0 1 -.07.12z" fill="url(#b)"/></svg>