<svg viewBox="0 0 71.2 65.69" xmlns="http://www.w3.org/2000/svg" xmlns:xlink="http://www.w3.org/1999/xlink"><linearGradient id="a" gradientTransform="matrix(71.2 0 0 -65.69 45343.94 27107.46)" gradientUnits="userSpaceOnUse" x1="-636.35" x2="-636.35" y1="412.67" y2="411.67"><stop offset="0" stop-color="#8dd9ff"/><stop offset=".03" stop-color="#00acff"/><stop offset="1" stop-color="#3febd8"/></linearGradient><path d="m70.27 35.59a2.14 2.14 0 0 0 .25-.41l.27-.54.17-.55a1.93 1.93 0 0 0 .13-.47 5.1 5.1 0 0 0 0-2.13 1.93 1.93 0 0 0 -.09-.49l-.17-.54-.27-.55a2.5 2.5 0 0 0 -.25-.41 4.61 4.61 0 0 0 -.68-.85l-27.4-27.34a5.47 5.47 0 0 0 -7.71 7.69l18 18h-47a5.48 5.48 0 1 0 -.12 11h47.12l-18 18a5.47 5.47 0 0 0 7.11 8.32 4.93 4.93 0 0 0 .6-.61l27.36-27.3a4.54 4.54 0 0 0 .69-.82z" fill="url(#a)"/></svg>