<svg viewBox="0 0 52 75.64" xmlns="http://www.w3.org/2000/svg" xmlns:xlink="http://www.w3.org/1999/xlink"><linearGradient id="a" gradientTransform="matrix(52 0 0 -75.64 33455.78 31651.74)" gradientUnits="userSpaceOnUse" x1="-642.88" x2="-642.88" y1="418.44" y2="417.44"><stop offset="0" stop-color="#8dd9ff"/><stop offset=".03" stop-color="#00acff"/><stop offset="1" stop-color="#3febd8"/></linearGradient><path d="m47.27 28.36h-10.07l14-21a4.73 4.73 0 0 0 -3.93-7.36h-23.63a4.72 4.72 0 0 0 -4.1 2.38l-18.92 33.09a4.74 4.74 0 0 0 4.1 7.08h15.5l-14.87 26a4.73 4.73 0 0 0 7.45 5.69l37.82-37.81a4.74 4.74 0 0 0 -3.35-8.07zm-37.82 42.55 17.21-30.12v-.61a2.35 2.35 0 0 0 -2.36-2.36h-19.57l18.91-33.09h23.63l-16.27 24.45a4.47 4.47 0 0 0 -.54 1.55 2.36 2.36 0 0 0 2.36 2.36h14.45z" fill="url(#a)"/></svg>